# xmcd
#
# Track frame offsets:
#	150
#	15812
#	31388
#	45765
#	60197
#	75605
#	90417
#	105735
#	122494
#	137518
#	150626
#	163173
#	178553
#	193882
#	208106
#	222558
#	237754
#	252198
#	266608
#	279708
#	295343
#	309818
#	323874
#	338757
#
# Disc length: 4694 seconds
#
# Revision: 0
# Processed by: cddbd v1.5.2PL0 Copyright (c) Steve Scherf et al.
# Submitted via: audiograbber 1.83.01
#
DISCID=42125418
DTITLE=Jimmie Rodgers - The Singing Brakeman CD5
DYEAR=1992
DGENRE=Country
TTITLE0=Roll Along Kentucky Moon - 1932
TTITLE1=Roll Along Kentucky Moon - 1932
TTITLE2=Hobo's Meditation - 1932
TTITLE3=Hobo's Meditation - 1932
TTITLE4=My Time Ain't Long - 1934
TTITLE5=Ninety Nine Year Blues - 1932
TTITLE6=Mississippi Moon - 1932
TTITLE7=Mississippi Moon - 1932
TTITLE8=Down the Old Road to Home - 1932
TTITLE9=Blue Yodel 10 - 1932
TTITLE10=Home Call - 1932
TTITLE11=Mother The Queen of My Heart - 1932
TTITLE12=Rock All My Babies to Sleep - 1932
TTITLE13=Whippin' That Old T.b. - 1932
TTITLE14=Whippin' That Old T.b. - 1933
TTITLE15=No Hard Times - 1932
TTITLE16=No Hard Times - 1933
TTITLE17=Long Tall Mama Blues - 1933
TTITLE18=Peach Picking Time Down in Georgia - 1933
TTITLE19=Gambling Bar Room Blues - 1933
TTITLE20=I've Only Loved Three Women - 1937
TTITLE21=In the Hills of Tennessee - 1932
TTITLE22=Prairie Lullaby - 1933
TTITLE23=Miss the Mississippi and You - 1932
EXTD=
EXTT0=
EXTT1=
EXTT2=
EXTT3=
EXTT4=
EXTT5=
EXTT6=
EXTT7=
EXTT8=
EXTT9=
EXTT10=
EXTT11=
EXTT12=
EXTT13=
EXTT14=
EXTT15=
EXTT16=
EXTT17=
EXTT18=
EXTT19=
EXTT20=
EXTT21=
EXTT22=
EXTT23=
PLAYORDER=
